# xmcd
#
# Track frame offsets:
#  150
#  12073
#  26539
#  43928
#  60147
#  80388
#  98713
#  116006
#  133500
#  151570
#  166596
#  182176
#
# Disc length: 2535 seconds
#
# Revision: 0
# Processed by: cddbd v1.5.1PL2 Copyright (c) Steve Scherf et al.
# Submitted via: Collectorz.com_Music_Collector 6.9
#
DISCID=7f09e50c
DTITLE=Alison Brown - Fair Weather
DYEAR=2000
DGENRE=Bluegrass
TTITLE0=Late on Arrival
TTITLE1=Fair Weather (featruing Vince Gill)
TTITLE2=Poe's Pickin' Party
TTITLE3=Everyday I Write The Book
TTITLE4=The Devil Went Down to Berkeley
TTITLE5=Hummingbird (featruing Claire Lynch)
TTITLE6=Girl's Breakdown
TTITLE7=Everybody's Talkin' (featuring Tim O'Brien)
TTITLE8=Deep Gap
TTITLE9=Shake and Howdy
TTITLE10=Leaving Cottondale
TTITLE11=Sweet Thing
EXTD=
EXTT0=
EXTT1=
EXTT2=
EXTT3=
EXTT4=
EXTT5=
EXTT6=
EXTT7=
EXTT8=
EXTT9=
EXTT10=
EXTT11=
PLAYORDER=
